<svg width="707" height="775" viewBox="0 0 707 775" fill="none" xmlns="http://www.w3.org/2000/svg">
<g filter="url(#filter0_d)">
<path d="M360.44 632.005C385.202 619.663 414.19 595.755 457.835 567.336C507.13 535.196 620.268 589.039 683.96 444.018C690.651 428.786 695.322 412.174 697.585 396.432C733.923 142.538 441.847 -8.89448 205.701 92.4731C104.008 136.126 -29.4175 226.784 15.2416 438.351C46.0604 584.407 194.367 714.844 360.44 632.005Z" fill="white"/>
<path d="M301.065 402.147L380.531 387.087C380.531 387.087 392.775 379.129 436.977 416.104C464.466 439.061 432.998 458.878 492.689 463.653C579.991 470.631 729.333 566.074 645.811 716.315C599.528 799.57 574.742 694.246 513.137 709.519C501.383 713.682 493.669 716.315 492.689 716.315C487.669 716.315 298.494 595.288 298.494 595.288L301.065 402.147Z" fill="#1E1735"/>
<path d="M75.0966 727.822C86.1777 704.988 98.3607 675.787 109.932 634.894C121.013 595.592 169.868 599.755 216.58 578.206C263.353 556.658 311.718 544.17 358.002 573.248C413.836 608.264 470.955 614.263 499.668 653.137C503.648 658.585 508.423 668.625 509.525 670.767C514.606 680.868 522.14 710.806 525.384 722.866C509.405 732.232 491.403 721.027 479.404 726.047C346.676 781.693 198.336 777.041 75.0966 727.822Z" fill="#FFBCB0"/>
<path d="M455.342 284.795C455.036 281.55 456.321 278.857 458.342 277.02C457.362 277.571 456.26 277.938 455.036 278.183C450.934 278.918 443.954 277.571 442.485 270.837C441.934 264.838 446.526 261.899 448.607 260.92C451.24 259.634 453.75 259.512 455.77 259.879C453.199 258.777 451.117 256.635 450.444 253.513C449.403 243.412 461.709 239.31 468.137 243.473C469.239 244.208 470.77 245.493 471.627 247.636C471.688 239.739 481.789 234.29 489.32 238.759C494.952 242.126 495.136 249.105 490.973 253.39C491.156 253.268 491.279 253.207 491.462 253.145C493.421 252.227 494.523 252.105 495.932 251.921C496.115 251.921 499.727 251.493 503.156 253.635C510.87 258.594 508.36 269.613 499.054 271.878C496.85 272.429 495.136 272.184 494.401 272.123C494.156 272.123 493.911 272 493.666 271.939C494.034 272.123 494.34 272.306 494.707 272.551C502.176 277.51 499.605 288.345 490.483 290.427C488.034 290.978 484.299 291.1 480.443 288.284C479.953 287.978 478.483 286.631 477.688 284.978C477.443 284.427 477.32 283.815 477.198 283.203C477.198 287.611 473.831 292.018 468.137 292.998C465.198 293.304 457.056 292.875 455.342 284.795Z" fill="white"/>
<path d="M476.281 272.062C482.587 270.531 484.363 263.124 479.098 259.941C474.139 256.88 466.302 260.308 466.914 266.797C468.016 271.756 473.037 272.858 476.281 272.062Z" fill="#FFBCB0"/>
<path d="M455.099 278.122C463.119 276.653 467.649 267.103 460.792 261.777C460.731 261.716 455.16 257.614 448.609 260.798C446.589 261.777 441.936 264.716 442.487 270.715C444.018 277.571 450.997 278.857 455.099 278.122Z" fill="#FFD700"/>
<path d="M499.117 271.755C508.423 269.551 510.933 258.471 503.219 253.512C499.791 251.37 496.179 251.798 495.995 251.798C494.587 251.982 493.485 252.104 491.526 253.023C490.24 253.635 489.383 254.737 488.22 255.41C488.159 255.41 484.914 258.042 485.404 263.674C486.016 266.49 487.118 268.633 490.607 270.653C491.158 270.959 491.771 270.898 492.383 271.082C493.117 271.327 493.73 271.816 494.526 271.878C495.199 272.061 496.913 272.306 499.117 271.755Z" fill="#FFD700"/>
<path d="M463.608 260.43C467.71 259.389 470.894 256.512 471.873 252.839C472.241 251.553 472.241 251.553 471.751 249.41C471.629 248.798 471.812 248.186 471.567 247.635C470.71 245.493 469.241 244.207 468.078 243.472C461.588 239.31 449.344 243.411 450.385 253.512C451.793 259.511 458.16 261.715 463.608 260.43Z" fill="#FFD700"/>
<path d="M490.607 290.243C499.729 288.161 502.301 277.326 494.831 272.367C488.281 268.021 477.873 271.449 476.894 280.387C477.383 281.856 477.138 283.386 477.812 284.794C478.608 286.447 480.138 287.794 480.567 288.1C484.363 290.916 488.097 290.855 490.607 290.243Z" fill="#FFD700"/>
<path d="M468.2 292.815C477.139 291.284 480.445 281.245 473.71 276.041C466.915 270.838 454.487 275.368 455.405 284.795C457.058 292.876 465.2 293.305 468.2 292.815Z" fill="#FFD700"/>
<path d="M485.955 256.389C494.709 253.696 496.73 243.105 489.322 238.697C481.302 233.923 470.282 240.473 471.751 249.166C472.976 255.593 480.2 258.165 485.955 256.389Z" fill="#FFD700"/>
<path d="M350.349 25.293C347.349 26.5786 346.859 34.598 346.92 36.557C347.226 43.1685 349.981 50.7594 353.532 59.0238C349.186 64.6558 344.655 66.0026 340.186 69.9817C331.309 77.8175 335.472 80.2662 335.839 80.4499C341.472 82.8986 353.043 73.5323 357.083 67.0433C359.104 71.5733 361.185 76.2259 363.144 81.062C363.573 82.1639 364.001 83.3883 364.307 84.6126C364.001 85.0412 363.695 85.5309 363.328 86.0206C352.859 99.1824 345.023 98.509 335.839 103.59C321.697 111.487 326.595 115.956 327.023 116.262C333.941 121.282 352.92 111.487 359.777 103.957C360.94 102.672 363.267 100.101 365.287 96.6725C363.328 125.69 335.105 162.971 309.085 139.831C303.086 134.505 301.494 143.81 289.801 144.116C279.883 144.361 272.903 134.75 270.577 131.811C258.761 116.874 256.741 92.5709 265.802 73.2874C274.495 54.9222 292.8 42.1278 309.085 38.6996C314.718 37.4752 334.003 37.5365 337.982 32.7003C342.757 26.8234 346.614 24.4972 349.124 23.5177C351.145 22.5382 352.43 24.3747 350.349 25.293ZM344.349 56.4526C344.165 56.3302 343.798 56.3302 342.757 56.82C341.9 57.2485 336.574 60.0033 336.084 65.3292C336.023 66.2474 335.901 67.2269 336.452 67.5942C337.553 68.3288 340.615 66.2474 342.451 63.7987C344.472 60.9827 345.329 57.0648 344.349 56.4526Z" fill="#346E00"/>
<path d="M516.015 405.697C511.362 405.82 505.729 395.78 504.627 393.148C500.954 384.394 499.852 372.824 499.301 359.907C490.179 355.254 483.506 356.295 475.18 353.908C458.772 349.194 462.69 343.439 463.058 343.011C468.813 336.338 489.689 341.358 498.934 347.296C498.75 340.195 498.628 332.788 498.199 325.38C498.077 323.666 497.832 321.891 497.526 320.116C496.852 319.687 496.179 319.32 495.383 318.891C473.71 308.301 463.854 314.055 448.793 313.076C425.59 311.545 429.141 302.73 429.508 302.056C435.447 291.221 466.119 292.262 479.649 297.832C481.975 298.812 486.506 300.71 491.281 303.893C470.833 267.407 411.019 236.431 391.551 282.589C387.082 293.18 379.184 282.161 363.879 288.956C350.839 294.71 347.778 311.545 346.553 316.81C340.492 343.501 352.859 376.374 376.552 395.78C399.204 414.329 430.855 419.533 454.119 413.962C462.201 412.003 487.24 400.065 495.383 403.922C505.24 408.575 511.668 409.187 515.525 409.003C518.769 408.758 519.32 405.636 516.015 405.697ZM488.955 368.967C488.771 369.273 488.342 369.518 486.689 369.457C485.281 369.457 476.71 369.151 472.792 362.539C472.119 361.437 471.384 360.213 471.874 359.417C472.792 357.764 478.118 358.56 481.975 360.641C486.322 363.029 489.873 367.559 488.955 368.967Z" fill="#7CA417"/>
<path d="M232.619 3.13249C230.048 6.00971 233.354 14.8862 234.456 17.0288C238.007 24.0076 244.68 30.864 252.577 38.0876C250.618 46.352 246.394 49.9638 243.455 56.4528C237.639 69.3085 243.394 69.8595 243.884 69.8595C251.169 69.7982 259.128 53.9429 260.353 45.0052C264.761 48.9231 269.291 52.9022 273.76 57.1875C274.801 58.1669 275.78 59.2688 276.699 60.432C276.576 61.0442 276.515 61.7175 276.331 62.4522C271.434 81.7356 262.557 84.8577 255.149 94.8362C243.7 110.263 251.169 112.712 251.782 112.834C261.761 114.915 277.495 95.0198 281.168 83.5722C281.78 81.6132 283.066 77.7565 283.556 73.0428C295.616 105.366 283.249 159.543 243.823 147.177C234.762 144.361 237.517 155.197 225.028 161.196C214.436 166.277 202.192 159.298 198.213 157.217C178.193 146.81 164.112 121.466 164.541 96.2442C164.969 72.1245 178.56 49.4128 194.478 37.7203C199.988 33.68 220.865 24.3137 222.762 17.1513C225.089 8.4584 228.15 4.05075 230.354 1.7857C232.129 -0.234471 234.456 1.11231 232.619 3.13249Z" fill="#7CA417"/>
<path d="M493.485 96.4882C493.24 84.8569 488.22 79.4698 491.709 69.3689C492.995 65.7571 495.077 62.2677 493.975 61.2882C492.505 60.0026 486.628 64.5327 484.853 65.7571C470.098 76.164 441.324 67.3487 435.324 65.7571C398.836 56.2684 344.165 90.4277 317.534 113.629C305.228 124.342 256.129 167.133 260.414 221.617C260.598 223.637 258.088 262.142 284.352 269.978C301.004 274.937 311.167 256.449 329.105 264.101C340.859 269.121 344.716 278.365 355.981 281.12C370.98 284.793 386.959 268.203 390.633 264.163C403.918 249.532 399.204 240.839 413.468 213.291C420.141 200.374 425.774 189.539 437.1 178.336C447.507 168.051 455.527 164.562 460.915 159.175C451.671 160.705 440.773 158.501 429.202 152.686C421.305 148.707 414.999 141.85 415.978 140.993C416.835 140.259 425.284 147.666 437.59 148.584C454.181 149.87 462.935 145.891 468.262 142.524C469.364 132.239 466.486 123.179 470.343 121.649C473.465 120.363 476.22 126.056 480.873 125.322C487.791 124.097 493.73 109.528 493.485 96.4882Z" fill="#7CA417"/>
<path d="M319.86 254.429C317.779 267.101 316.738 279.896 316.677 292.69C316.616 299.118 316.86 305.485 317.228 311.913C317.411 315.096 317.656 318.34 317.962 321.524C318.207 324.768 318.452 328.074 318.636 331.318C319.371 344.419 319.309 357.581 318.575 370.681C318.33 375.15 317.962 379.68 317.534 384.149H308.963C309.514 379.497 310.004 374.783 310.432 370.13C311.473 357.336 311.84 344.48 311.412 331.686C311.289 328.502 311.167 325.319 310.983 322.075C310.8 318.83 310.616 315.586 310.493 312.28C310.249 305.73 310.187 299.179 310.371 292.568C310.738 279.467 312.146 266.367 314.534 253.45C316.983 240.533 320.473 227.861 325.125 215.618L326.901 211.026L328.799 206.496C330.084 203.497 331.37 200.497 332.717 197.558C335.411 191.62 338.349 185.743 341.533 180.05C347.9 168.603 355.185 157.706 363.634 147.727C372.021 137.749 381.572 128.628 392.102 120.975C397.367 117.119 402.877 113.629 408.632 110.507L412.978 108.242C414.448 107.508 415.917 106.834 417.386 106.161C420.386 104.814 423.325 103.529 426.386 102.427C438.508 97.7741 451.242 94.7132 464.16 93.1216C451.303 94.9581 438.691 98.3251 426.753 103.284C423.753 104.508 420.815 105.855 417.876 107.202C416.407 107.936 414.999 108.61 413.529 109.405L409.305 111.732C403.673 114.915 398.346 118.527 393.204 122.445C382.98 130.281 373.797 139.463 365.715 149.503C357.634 159.542 350.716 170.439 344.716 181.826C341.716 187.519 338.961 193.334 336.451 199.273C335.166 202.211 333.941 205.211 332.778 208.21L331.003 212.679L329.35 217.209C325.064 229.269 321.942 241.757 319.86 254.429Z" fill="#9FBC50"/>
<path d="M457.12 271.509C456.201 266.978 456.875 265.999 458.528 262.203C461.895 254.184 479.159 252.96 490.057 237.9C496.975 228.35 514.79 234.411 527.157 226.024C535.912 220.025 527.035 215.127 547.972 206.434C579.869 193.273 578.277 173.989 577.114 173.316C575.277 172.275 574.787 177.907 572.155 180.417C559.727 192.171 494.036 157.95 429.754 188.437C401.775 201.721 380.654 222.596 371.593 251.368C364.981 272.427 370.491 284.425 378.45 283.507C387.878 282.466 380.286 287.548 384.817 296.485C403.367 333.644 460.609 288.527 457.12 271.509Z" fill="#346E00"/>
<path d="M316.738 360.213L311.045 359.968C315.759 352.438 320.718 345.031 325.86 337.746C339.941 317.789 355.614 298.811 373.062 281.732C390.572 264.652 409.918 249.409 430.978 237.043C452.038 224.677 474.812 215.189 498.505 209.25C501.444 208.577 504.444 207.842 507.382 207.169L516.321 205.21C522.259 203.863 528.136 202.455 534.014 200.741C539.83 199.027 545.585 197.007 551.095 194.497C556.605 191.987 561.87 188.865 566.461 184.825C561.931 188.926 556.666 192.11 551.217 194.742C545.707 197.374 539.952 199.456 534.136 201.292C528.32 203.067 522.382 204.598 516.504 206.006L507.627 208.087C504.689 208.822 501.75 209.557 498.811 210.291C475.363 216.597 452.895 226.33 432.202 238.941C411.509 251.552 392.531 266.917 375.511 284.119C358.491 301.321 343.309 320.299 329.656 340.317C325.126 346.806 320.84 353.479 316.738 360.213Z" fill="#7CA417"/>
<path d="M334.554 189.601C323.901 163.277 302.351 144.912 280.066 137.872C274.189 136.036 264.149 132.975 256.619 137.933C244.803 145.647 248.231 167.134 243.517 167.746C237.64 168.542 235.926 136.464 217.682 128.506C204.152 122.629 185.234 128.69 174.765 139.035C148.134 165.42 154.072 216.414 168.766 248.37C177.337 267.102 203.111 310.322 235.926 318.035C242.476 319.566 265.557 323.545 271.495 338.543C272.781 341.787 272.597 343.869 274.373 344.848C281.964 348.889 307.8 322.259 322.309 295.507C328.86 283.447 353.9 237.351 334.554 189.601ZM314.167 189.601C313.493 190.274 302.229 182.255 279.699 166.155C276.148 163.645 272.475 160.951 273.026 159.482C273.822 157.401 283.189 158.38 290.229 161.196C306.943 167.808 316.738 187.091 314.167 189.601Z" fill="#346E00"/>
<path d="M205.437 193.641C211.62 188.805 220.436 198.967 233.048 193.702C245.231 188.621 256.741 172.031 252.7 160.277C245.843 140.198 248.965 121.527 243.517 109.467C234.762 89.9999 212.539 75.9199 157.378 58.7179C151.317 56.8201 145.868 55.1673 140.971 53.698C143.664 57.6159 146.297 61.9624 148.44 66.8598C149.664 69.5533 154.562 80.8785 153.46 95.2034C153.092 100.162 152.358 109.896 146.297 112.65C145.807 112.834 143.664 113.385 141.277 112.283C136.746 110.202 136.624 102.243 136.563 88.2859C136.501 65.6354 135.461 56.6365 133.991 51.7391C120.155 47.9436 111.033 46.5356 103.197 48.3721C91.626 51.1269 75.7084 58.1057 67.2598 51.6166C62.3621 47.8212 64.6273 42.3116 62.4845 42.3728C58.0766 42.434 57.9542 67.5944 50.9137 95.6319C40.1387 138.729 41.2407 135.362 41.7305 146.932C41.7917 148.952 41.9753 150.911 42.2202 152.809C87.218 174.97 117.4 163.951 128.114 166.399C130.073 166.828 137.175 168.481 137.42 171.297C137.726 175.398 123.645 179.561 120.645 180.479C102.401 185.866 69.0965 189.111 48.3423 175.521C55.7502 192.968 68.1169 207.476 79.5041 220.76C98.6053 243.105 116.115 263.551 144.338 266.673C161.48 268.571 184.499 262.143 195.825 249.288C212.355 230.494 190.56 205.272 205.437 193.641Z" fill="#9FBC50"/>
<path d="M201.458 376.191C196.682 341.787 181.071 317.3 180.214 311.606C180.153 311.178 179.54 307.138 181.561 305.852C183.52 304.628 187.132 306.525 188.356 307.75C216.09 335.053 202.07 379.313 209.11 403.8C209.539 403.188 210.029 402.514 210.58 401.841C220.62 388.618 255.516 349.867 250.925 299.608C250.313 292.751 246.639 272.978 232.375 265.571C213.457 255.776 202.805 257.123 180.275 266.489C170.969 270.346 179.908 249.716 172.316 232.514C171.582 230.861 162.521 211.087 142.195 203.558C109.931 191.559 78.5247 221.372 77.1778 222.658C69.0353 230.616 64.6886 238.941 58.7501 250.328C53.73 259.878 47.7914 271.509 45.6487 287.242C43.5059 302.669 47.8527 301.322 45.2202 315.524C42.4652 330.278 36.6492 337.93 40.2612 349.255C40.6898 350.602 41.1796 351.643 41.5469 352.622C47.7915 347.051 56.0564 341.174 65.2396 337.318C69.219 335.604 80.0552 331.012 83.6061 334.93C84.7693 336.216 84.953 338.236 84.6469 339.766C83.3612 345.398 73.7495 347.48 68.362 348.949C56.1789 352.255 47.1793 357.458 40.9347 361.621C37.9348 366.212 31.078 367.743 27.8332 374.048C20.4254 388.373 38.9755 412.615 41.0571 415.309C46.0772 421.736 47.6078 421.247 50.6077 426.695C55.8728 436.245 54.8932 444.448 62.1173 449.223C63.7703 450.325 67.26 452.59 66.5865 451.06C65.7294 449.162 65.607 437.286 73.8719 430.674C81.2797 424.736 127.318 441.51 169.561 429.021C171.582 416.839 174.765 396.086 169.745 370.008C167.969 360.886 164.051 344.97 171.582 338.848C173.602 337.195 176.785 336.032 179.54 336.828C188.05 339.277 189.091 358.989 189.458 366.151C190.621 388.373 185.356 410.901 179.724 425.409C188.356 421.736 196.744 416.594 204.396 409.554C205.192 408.82 205.866 408.085 206.539 407.228C205.131 400.616 203.478 390.822 201.458 376.191Z" fill="#7CA417"/>
<path d="M85.9324 366.946C95.4217 346.438 106.993 326.726 121.135 308.912C128.175 299.974 135.889 291.526 144.399 283.874C152.909 276.222 162.153 269.304 172.438 263.856C177.581 261.162 182.969 258.836 188.601 257.183C194.233 255.53 200.172 254.49 206.233 254.551C207.763 254.551 209.294 254.673 210.763 254.857C212.294 255.041 213.824 255.285 215.232 255.591C218.11 256.204 220.987 256.938 223.865 257.918C229.497 259.815 234.946 262.509 239.843 265.876C249.761 272.61 257.598 282.037 263.414 292.261C269.291 302.484 273.332 313.564 276.27 324.706C279.27 335.909 281.168 347.295 282.454 358.743C283.005 363.64 283.433 368.538 283.739 373.496H272.719C272.536 368.905 272.291 364.375 271.862 359.783C270.944 348.764 269.413 337.806 266.903 327.093C264.393 316.442 260.843 305.973 255.761 296.485C250.68 286.996 244.007 277.262 235.374 271.079C231.089 267.957 226.313 266.611 221.293 264.713C218.783 263.795 216.212 262.999 213.641 262.387C212.294 262.081 211.069 261.836 209.784 261.652C208.498 261.468 207.212 261.346 205.927 261.285C200.723 261.04 195.335 261.774 190.132 263.182C184.928 264.529 179.846 266.549 174.887 268.998C165.031 273.834 155.909 280.262 147.399 287.486C138.95 294.709 131.114 302.79 123.951 311.361C109.564 328.501 97.5033 347.662 87.5241 367.803C77.4838 387.943 69.4638 409.125 63.2192 430.796C68.974 408.88 76.443 387.454 85.9324 366.946Z" fill="#9FBC50"/>
<path d="M78.9531 74.1444C82.6264 78.7357 86.5446 83.2046 90.524 87.551C98.544 96.2439 106.87 104.508 115.441 112.65C132.522 128.873 150.276 144.483 168.153 159.849C177.091 167.501 186.152 175.092 195.152 182.683L208.743 194.069C211.008 195.967 213.273 197.865 215.538 199.824C216.64 200.803 217.804 201.844 218.906 202.885C220.008 203.986 221.048 205.027 222.089 206.19C224.171 208.455 226.068 210.904 227.721 213.475C229.436 216.046 230.966 218.679 232.313 221.433C235.068 226.882 237.088 232.636 238.925 238.329C239.843 241.207 240.7 244.023 241.435 246.961C242.231 249.961 242.782 252.96 243.333 255.899C244.313 261.837 245.047 267.714 245.721 273.591C247.068 285.344 248.231 297.098 249.639 308.791C251.047 320.483 252.639 332.114 254.598 343.623C258.087 364.192 262.679 384.516 269.168 404.228H259.251C253.496 384.761 249.455 364.866 246.455 344.909C244.68 333.155 243.333 321.34 242.17 309.586C241.007 297.833 240.027 286.018 238.925 274.325C238.374 268.448 237.762 262.633 236.905 256.939C236.476 254.062 235.986 251.246 235.313 248.553C234.64 245.798 233.844 242.921 233.048 240.166C231.395 234.595 229.558 229.147 227.109 224.005C225.946 221.433 224.538 218.923 223.069 216.536C221.599 214.149 219.885 211.883 218.048 209.741C217.13 208.639 216.151 207.659 215.171 206.619C214.13 205.639 213.151 204.599 212.11 203.619C209.967 201.66 207.763 199.701 205.559 197.742L192.274 186.05C183.397 178.275 174.581 170.439 165.765 162.481C148.195 146.687 130.869 130.587 114.155 113.874C105.829 105.488 97.6257 96.9785 89.7893 88.1019C85.9324 83.6331 82.1366 79.103 78.5245 74.3893C74.9737 69.6755 71.5452 64.7781 68.9127 59.5134C71.7901 64.7781 75.341 69.4919 78.9531 74.1444Z" fill="#7CA417"/>
<path d="M222.518 605.756C211.498 588.064 231.273 578.637 216.702 541.6C211.927 529.479 199.866 514.175 184.683 503.768C173.296 495.993 166.99 497.891 164.296 492.136C155.358 472.975 196.989 429.021 202.131 425.226C225.518 407.963 260.414 395.474 286.495 393.148C290.658 392.781 333.635 389.414 344.716 410.595C351.267 423.206 341.778 436.796 330.146 465.874C320.35 490.422 324.085 518.46 335.962 544.416C342.574 558.863 357.512 570.617 367.552 582.493C376.919 593.574 369.94 613.592 336.145 623.08C298.984 633.549 241.619 636.426 222.518 605.756Z" fill="#F2A878"/>
<path d="M125.359 395.23C126.094 393.883 127.87 391.312 127.87 387.761C127.87 383.782 125.666 378.456 125.359 377.844C120.033 366.458 124.441 335.237 136.318 305.547H372.45C376.858 314.484 380.041 324.463 381.143 335.604C381.756 341.848 385.551 366.641 371.225 387.761C324.024 457.304 271.74 369.886 255.333 375.334C248.905 377.477 247.741 395.781 245.415 432.45C243.885 456.876 245.231 462.998 240.456 474.69C232.497 494.218 213.947 504.87 207.335 509.462C207.335 509.462 182.234 526.97 155.174 524.337C149.42 523.786 145.563 522.134 142.746 519.379C138.828 515.461 138.645 510.257 137.787 506.952C131.604 483.383 126.584 475.914 122.911 454.794C122.482 452.223 121.686 448.611 120.401 447.326C116.911 443.837 111.952 444.081 107.973 442.367C99.2791 438.633 106.809 426.941 107.973 424.982C111.707 418.799 116.666 411.33 125.359 395.23Z" fill="#FFB383"/>
<path d="M439.426 447.937C434.528 502.666 342.023 511.42 340.002 439.918C338.043 368.355 447.324 360.091 439.426 447.937Z" fill="#1E1735"/>
<path d="M146.726 305.546C146.909 305.975 147.032 306.465 147.216 306.893C150.522 315.464 155.787 323.116 161.786 330.095C173.908 344.175 189.091 354.949 204.519 366.09C212.172 371.784 219.763 377.783 226.681 384.639C233.477 391.618 239.721 399.27 244.374 407.841C246.823 412.065 248.843 416.472 250.68 421.002C252.394 425.532 253.986 430.124 255.149 434.776C257.537 444.081 259.067 453.57 259.557 463.059C255.21 444.571 249.272 426.512 239.232 411.024C234.211 403.311 228.334 396.209 221.6 389.904C214.927 383.537 207.58 377.844 199.927 372.273C192.397 366.58 184.622 361.07 177.275 354.765C169.99 348.46 163.072 341.603 157.195 333.829C151.256 326.115 146.297 317.484 143.665 307.995C143.42 307.138 143.236 306.342 143.053 305.485H146.726V305.546Z" fill="#1E1735"/>
<path d="M366.389 407.411C368.47 404.411 370.735 401.656 372.817 398.84C374.96 396.024 376.919 393.147 378.694 390.086C385.735 378.026 389.286 364.253 390.02 350.479C390.694 336.644 388.918 322.564 384.204 309.769C383.714 308.361 383.163 306.953 382.612 305.606H390.51C390.694 306.157 390.939 306.769 391.122 307.382C395.836 321.523 397.489 336.337 396.081 350.968C395.408 358.253 394 365.538 391.612 372.517C389.224 379.434 386.041 386.168 381.939 392.229C377.837 398.289 372.695 403.493 368.164 408.819C365.899 411.512 363.879 414.39 362.348 417.573C360.756 420.695 359.716 424.123 358.92 427.613C359.348 424.062 360.022 420.511 361.307 417.144C362.471 413.594 364.307 410.41 366.389 407.411Z" fill="#1E1735"/>
<path d="M381.633 305.547C383.469 310.321 385.061 315.341 386.102 320.728C387.204 326.116 393.387 356.785 378.633 385.313C368.654 404.535 356.961 407.78 353.777 427.492C352.246 437.225 353.348 447.265 346.308 459.753C343.492 464.773 340.92 469.119 336.39 472.18C314.044 487.056 288.27 467.956 271.801 447.326C259.985 432.511 260.843 431.654 259.373 424.982C256.741 413.167 258.884 417.391 256.863 411.575C248.904 387.945 212.171 370.927 174.949 340.563C160.317 328.625 152.358 317.484 147.644 305.791C147.583 305.73 147.583 305.608 147.521 305.547H381.633Z" fill="#1E1735"/>
<path d="M469.67 297.22C465.506 298.995 456.752 291.894 454.793 289.935C448.303 283.323 443.161 273.222 438.079 261.652C428.1 260.673 422.406 264.04 414.019 264.897C397.428 266.55 398.959 259.877 399.142 259.326C401.958 251.184 422.713 248.307 433.243 250.327C430.549 243.899 427.733 237.288 424.733 230.676C423.998 229.146 423.141 227.615 422.223 226.146C421.488 226.024 420.692 225.901 419.835 225.84C396.326 223.942 389.469 232.696 375.45 237.227C353.838 244.205 353.9 234.9 354.022 234.104C355.491 222.167 383.714 212.066 398.04 212.311C400.489 212.372 405.326 212.434 410.774 213.658C379.123 187.885 313.738 181.151 312.575 230.064C312.33 241.267 301.188 234.104 289.739 245.797C280.005 255.714 283.189 272.059 283.984 277.324C288.025 303.77 311.044 329.114 339.574 338.235C366.756 346.928 397.428 340.317 416.529 326.971C423.202 322.319 441.63 302.484 450.385 303.096C460.976 303.77 467.098 302.056 470.527 300.464C473.282 298.995 472.669 295.934 469.67 297.22ZM431.896 273.59C431.835 273.957 431.528 274.324 429.998 274.875C428.712 275.365 420.815 278.181 414.876 273.59C413.835 272.794 412.795 271.998 412.917 271.08C413.162 269.243 418.305 268.08 422.529 268.57C427.427 269.121 432.202 271.937 431.896 273.59Z" fill="#9FBC50"/>
<path d="M232.803 380.965C279.393 422.716 243.333 489.932 306.085 522.133C343.859 541.477 318.881 571.658 377.592 591.798C532.85 644.935 423.264 492.81 401.897 470.465C368.899 435.816 195.703 347.724 232.803 380.965Z" fill="#1E1735"/>
<path d="M229.987 391.679C232.619 386.169 235.803 381.701 241.007 379.497C241.986 379.068 247.19 376.864 252.578 378.946C259.312 381.517 262.128 388.863 263.108 392.72C269.781 419.227 258.21 438.571 246.639 448.489C245.292 449.652 236.721 455.651 230.048 447.938C219.457 435.572 222.028 408.391 229.987 391.679Z" fill="#EB9E6C"/>
<path d="M177.579 232.575C177.09 227.494 179.11 223.27 182.355 220.271C180.763 221.128 179.049 221.74 177.151 222.046C170.723 223.209 159.703 221.128 157.376 210.476C156.458 201.048 163.805 196.396 166.988 194.865C171.151 192.845 175.069 192.723 178.253 193.274C174.212 191.498 170.968 188.193 169.927 183.234C168.335 167.317 187.62 160.89 197.783 167.44C199.558 168.542 201.884 170.623 203.231 173.99C203.292 161.624 219.271 152.993 231.087 160.033C239.964 165.359 240.209 176.316 233.72 183.05C233.965 182.867 234.209 182.744 234.516 182.622C237.577 181.214 239.352 180.969 241.556 180.663C241.801 180.602 247.556 179.928 252.882 183.356C265.004 191.131 261.086 208.517 246.392 212.006C242.964 212.802 240.27 212.496 239.107 212.373C238.74 212.312 238.372 212.19 238.005 212.067C238.556 212.373 239.107 212.68 239.658 212.986C251.413 220.76 247.433 237.84 233.046 241.084C229.189 241.941 223.251 242.125 217.19 237.717C216.455 237.167 214.129 235.085 212.843 232.453C212.415 231.535 212.231 230.616 212.108 229.637C212.108 236.554 206.782 243.472 197.844 245.064C193.069 245.982 180.273 245.308 177.579 232.575Z" fill="white"/>
<path d="M210.58 212.557C220.559 210.17 223.252 198.539 215.049 193.458C207.274 188.621 194.846 194.07 195.886 204.232C197.539 212.006 205.498 213.782 210.58 212.557Z" fill="#FFBCB0"/>
<path d="M177.214 222.106C189.825 219.78 196.988 204.782 186.213 196.395C186.152 196.334 177.336 189.845 167.051 194.865C163.868 196.456 156.582 201.048 157.439 210.475C159.766 221.188 170.786 223.27 177.214 222.106Z" fill="#AE9AE3"/>
<path d="M246.456 212.068C261.149 208.579 265.067 191.132 252.945 183.418C247.619 179.99 241.864 180.664 241.619 180.725C239.415 181.031 237.64 181.214 234.579 182.684C232.62 183.602 231.211 185.377 229.375 186.479C229.314 186.54 224.11 190.581 224.967 199.457C225.946 203.865 227.661 207.293 233.109 210.476C233.966 210.966 235.007 210.905 235.864 211.211C237.027 211.578 238.007 212.313 239.231 212.497C240.272 212.558 242.966 212.925 246.456 212.068Z" fill="#AE9AE3"/>
<path d="M190.622 194.192C197.111 192.6 202.131 188.009 203.662 182.193C204.213 180.173 204.213 180.173 203.478 176.806C203.295 175.888 203.601 174.908 203.233 173.99C201.886 170.623 199.56 168.603 197.785 167.44C187.622 160.889 168.276 167.317 169.929 183.234C172.01 192.784 182.051 196.273 190.622 194.192Z" fill="#AE9AE3"/>
<path d="M233.048 241.207C247.435 237.963 251.414 220.822 239.66 213.108C229.375 206.313 213.029 211.639 211.437 225.658C212.171 227.923 211.865 230.433 212.906 232.637C214.131 235.269 216.518 237.35 217.253 237.901C223.253 242.187 229.191 242.064 233.048 241.207Z" fill="#AE9AE3"/>
<path d="M197.785 245.187C211.865 242.738 217.069 226.944 206.417 218.802C195.764 210.599 176.112 217.7 177.581 232.576C180.275 245.309 193.07 245.982 197.785 245.187Z" fill="#AE9AE3"/>
<path d="M225.763 187.887C239.538 183.663 242.782 166.95 231.089 160.033C218.477 152.503 201.152 162.849 203.417 176.5C205.376 186.662 216.763 190.641 225.763 187.887Z" fill="#AE9AE3"/>
<path d="M214.131 320.789C213.641 315.402 215.722 310.994 219.151 307.872C217.498 308.729 215.661 309.403 213.702 309.77C206.968 310.994 195.335 308.791 192.887 297.588C191.907 287.671 199.621 282.773 202.988 281.12C207.335 278.978 211.498 278.855 214.865 279.406C210.58 277.57 207.212 274.019 206.049 268.816C204.335 252.042 224.722 245.308 235.374 252.226C237.211 253.389 239.721 255.593 241.129 259.143C241.19 246.104 257.965 237.044 270.454 244.451C279.821 250.022 280.066 261.592 273.209 268.693C273.454 268.51 273.76 268.387 274.066 268.265C277.311 266.734 279.148 266.551 281.474 266.245C281.719 266.183 287.78 265.51 293.413 269.061C306.208 277.202 302.045 295.568 286.617 299.241C283.005 300.098 280.127 299.73 278.964 299.608C278.536 299.547 278.168 299.424 277.801 299.302C278.413 299.608 278.964 299.914 279.515 300.281C291.882 308.423 287.658 326.421 272.536 329.849C268.434 330.768 262.251 330.951 255.884 326.36C255.088 325.809 252.639 323.605 251.292 320.85C250.863 319.932 250.619 318.891 250.496 317.912C250.496 325.197 244.864 332.482 235.436 334.135C230.415 334.93 216.947 334.257 214.131 320.789Z" fill="white"/>
<path d="M248.782 299.731C259.251 297.221 262.128 284.977 253.496 279.59C245.292 274.509 232.252 280.202 233.293 290.915C235.068 299.18 243.456 301.077 248.782 299.731Z" fill="#FFD700"/>
<path d="M213.641 309.769C226.865 307.321 234.395 291.588 223.069 282.711C223.008 282.65 213.702 275.794 202.927 281.12C199.56 282.772 191.907 287.67 192.825 297.587C195.335 308.79 206.906 311.055 213.641 309.769Z" fill="#D5C7F4"/>
<path d="M286.556 299.241C301.984 295.568 306.147 277.264 293.351 269.061C287.719 265.449 281.658 266.184 281.413 266.245C279.087 266.551 277.25 266.796 274.005 268.265C271.924 269.245 270.454 271.142 268.495 272.244C268.434 272.306 262.985 276.53 263.842 285.896C264.883 290.548 266.659 294.099 272.414 297.466C273.332 298.017 274.373 297.894 275.352 298.201C276.577 298.568 277.617 299.364 278.903 299.547C280.066 299.792 282.882 300.098 286.556 299.241Z" fill="#D5C7F4"/>
<path d="M227.783 280.447C234.64 278.794 239.844 273.957 241.497 267.836C242.048 265.754 242.048 265.754 241.313 262.143C241.129 261.163 241.435 260.122 241.007 259.143C239.599 255.592 237.089 253.45 235.252 252.225C224.538 245.308 204.213 252.103 205.927 268.815C208.192 278.916 218.783 282.65 227.783 280.447Z" fill="#D5C7F4"/>
<path d="M272.475 329.85C287.596 326.422 291.821 308.424 279.454 300.282C268.618 293.12 251.414 298.752 249.7 313.505C250.496 315.893 250.129 318.525 251.231 320.851C252.578 323.606 255.026 325.81 255.822 326.361C262.189 330.952 268.373 330.83 272.475 329.85Z" fill="#D5C7F4"/>
<path d="M235.374 334.073C250.19 331.502 255.639 314.912 244.496 306.28C233.293 297.649 212.661 305.117 214.13 320.789C216.947 334.257 230.415 334.93 235.374 334.073Z" fill="#D5C7F4"/>
<path d="M264.761 273.774C279.27 269.305 282.637 251.797 270.393 244.451C257.108 236.554 238.925 247.389 241.313 261.775C243.333 272.488 255.333 276.712 264.761 273.774Z" fill="#D5C7F4"/>
<path d="M282.515 194.314C282.086 198.661 283.801 202.273 286.556 204.783C285.209 204.048 283.739 203.558 282.148 203.252C276.699 202.273 267.271 204.048 265.312 213.108C264.516 221.128 270.76 225.107 273.515 226.454C277.066 228.168 280.372 228.29 283.127 227.861C279.699 229.392 276.944 232.208 276.025 236.432C274.679 250.022 291.147 255.471 299.779 249.9C301.249 248.92 303.269 247.206 304.432 244.329C304.494 254.92 318.085 262.266 328.186 256.266C335.778 251.736 335.961 242.37 330.39 236.616C330.635 236.738 330.819 236.86 331.064 236.983C333.696 238.207 335.166 238.391 337.063 238.636C337.247 238.636 342.206 239.248 346.736 236.309C357.083 229.698 353.777 214.822 341.226 211.884C338.288 211.21 335.961 211.455 334.982 211.578C334.676 211.639 334.308 211.7 334.002 211.823C334.492 211.578 334.921 211.333 335.41 211.027C345.451 204.415 342.022 189.846 329.778 187.03C326.472 186.295 321.452 186.172 316.248 189.907C315.636 190.335 313.616 192.111 312.514 194.376C312.146 195.171 311.963 195.967 311.84 196.763C311.84 190.825 307.31 184.948 299.657 183.601C295.678 182.867 284.78 183.479 282.515 194.314Z" fill="white"/>
<path d="M310.616 211.392C319.126 213.473 321.452 223.329 314.412 227.675C307.739 231.838 297.209 227.186 298.066 218.493C299.474 211.881 306.269 210.351 310.616 211.392Z" fill="#FFD700"/>
<path d="M282.148 203.252C292.862 205.211 298.984 218.005 289.801 225.167C289.739 225.229 282.209 230.799 273.454 226.453C270.761 225.106 264.516 221.127 265.251 213.108C267.271 204.047 276.638 202.272 282.148 203.252Z" fill="#FFBCB0"/>
<path d="M341.227 211.821C353.777 214.821 357.083 229.636 346.737 236.247C342.145 239.186 337.247 238.573 337.064 238.573C335.166 238.329 333.697 238.145 331.064 236.921C329.35 236.125 328.187 234.594 326.595 233.676C326.534 233.676 322.126 230.187 322.799 222.596C323.656 218.8 325.064 215.923 329.778 213.229C330.513 212.801 331.37 212.862 332.166 212.617C333.146 212.311 334.003 211.638 335.043 211.515C335.962 211.393 338.288 211.148 341.227 211.821Z" fill="#FFBCB0"/>
<path d="M293.596 227.064C299.106 228.411 303.392 232.329 304.739 237.288C305.167 239.002 305.167 239.002 304.616 241.879C304.433 242.675 304.678 243.532 304.371 244.267C303.208 247.144 301.188 248.858 299.719 249.837C291.025 255.469 274.557 249.96 275.965 236.37C277.679 228.289 286.311 225.289 293.596 227.064Z" fill="#FFBCB0"/>
<path d="M329.778 186.968C342.023 189.784 345.451 204.354 335.411 210.965C326.595 216.781 312.697 212.19 311.289 200.252C311.902 198.293 311.657 196.212 312.514 194.314C313.555 192.049 315.575 190.274 316.248 189.845C321.452 186.111 326.472 186.233 329.778 186.968Z" fill="#FFBCB0"/>
<path d="M299.719 183.6C311.718 185.682 316.126 199.15 307.065 206.128C298.004 213.107 281.23 207.047 282.454 194.375C284.781 183.478 295.678 182.866 299.719 183.6Z" fill="#FFBCB0"/>
<path d="M323.534 232.453C335.288 236.065 338.043 250.267 328.064 256.205C317.289 262.633 302.535 253.818 304.494 242.187C306.208 233.494 315.881 230.065 323.534 232.453Z" fill="#FFBCB0"/>
<path d="M477.996 136.22C477.751 138.669 478.731 140.689 480.261 142.097C479.527 141.668 478.669 141.423 477.812 141.24C474.751 140.689 469.486 141.668 468.384 146.749C467.956 151.279 471.445 153.483 472.976 154.218C474.935 155.197 476.833 155.259 478.363 155.014C476.404 155.871 474.874 157.462 474.384 159.789C473.588 167.38 482.832 170.44 487.73 167.318C488.587 166.767 489.689 165.788 490.302 164.196C490.302 170.134 497.954 174.236 503.587 170.869C507.811 168.359 507.933 163.094 504.811 159.85C504.933 159.911 505.056 159.972 505.178 160.034C506.648 160.707 507.505 160.829 508.546 160.952C508.668 160.952 511.423 161.319 513.994 159.666C519.81 155.932 517.912 147.668 510.933 145.953C509.28 145.586 507.995 145.709 507.444 145.77C507.26 145.77 507.076 145.831 506.893 145.892C507.137 145.77 507.444 145.586 507.688 145.464C513.321 141.729 511.362 133.588 504.505 132.057C502.668 131.629 499.852 131.567 496.913 133.649C496.546 133.894 495.444 134.873 494.832 136.159C494.648 136.587 494.526 137.016 494.465 137.505C494.465 134.2 491.893 130.894 487.669 130.159C485.404 129.792 479.282 130.098 477.996 136.22Z" fill="white"/>
<path d="M493.73 145.769C498.505 146.932 499.791 152.442 495.873 154.891C492.138 157.217 486.261 154.585 486.689 149.748C487.485 146.014 491.281 145.157 493.73 145.769Z" fill="#FFD700"/>
<path d="M477.751 141.177C483.751 142.279 487.179 149.442 482.037 153.421C481.975 153.482 477.812 156.543 472.915 154.155C471.384 153.421 467.894 151.217 468.323 146.687C469.425 141.667 474.69 140.626 477.751 141.177Z" fill="#FFBCB0"/>
<path d="M510.872 146.015C517.913 147.668 519.749 155.993 513.933 159.728C511.362 161.381 508.607 161.013 508.485 161.013C507.444 160.891 506.587 160.768 505.117 160.095C504.199 159.667 503.526 158.809 502.607 158.32C502.607 158.32 500.097 156.361 500.526 152.137C501.016 149.994 501.812 148.403 504.444 146.872C504.873 146.627 505.362 146.688 505.791 146.505C506.342 146.321 506.832 145.954 507.383 145.893C507.934 145.77 509.219 145.587 510.872 146.015Z" fill="#FFBCB0"/>
<path d="M484.179 154.523C487.302 155.258 489.689 157.462 490.424 160.217C490.669 161.196 490.669 161.196 490.363 162.788C490.302 163.216 490.424 163.706 490.24 164.135C489.628 165.726 488.465 166.706 487.669 167.257C482.833 170.379 473.588 167.318 474.323 159.727C475.302 155.197 480.078 153.544 484.179 154.523Z" fill="#FFBCB0"/>
<path d="M504.444 132.119C511.301 133.711 513.199 141.852 507.627 145.526C502.73 148.77 494.893 146.199 494.159 139.526C494.526 138.424 494.342 137.261 494.832 136.22C495.444 134.935 496.546 133.955 496.914 133.711C499.791 131.629 502.607 131.69 504.444 132.119Z" fill="#FFBCB0"/>
<path d="M487.608 130.159C494.342 131.322 496.791 138.852 491.71 142.77C486.628 146.688 477.261 143.26 477.935 136.159C479.282 130.098 485.404 129.792 487.608 130.159Z" fill="#FFBCB0"/>
<path d="M500.954 157.523C507.566 159.544 509.097 167.502 503.526 170.808C497.526 174.419 489.2 169.461 490.302 162.972C491.22 158.136 496.669 156.238 500.954 157.523Z" fill="#FFBCB0"/>
<path d="M271.067 166.46C271.557 163.828 273.148 162.052 275.169 161.073C274.25 161.256 273.332 161.318 272.353 161.256C268.985 160.95 263.843 158.318 264.21 152.686C265.128 147.911 269.414 146.625 271.189 146.319C273.516 145.891 275.475 146.381 277.005 147.115C275.23 145.646 274.128 143.565 274.312 140.932C275.781 132.79 286.25 132.362 290.352 137.076C291.086 137.871 291.943 139.218 292.127 141.116C293.903 134.994 303.086 132.974 307.922 138.177C311.596 142.095 310.126 147.544 305.963 149.992C306.086 149.931 306.269 149.931 306.392 149.87C308.106 149.625 309.024 149.748 310.187 149.931C310.31 149.931 313.249 150.421 315.453 152.87C320.35 158.44 315.942 166.521 308.167 166.154C306.331 166.093 305.045 165.542 304.494 165.297C304.31 165.236 304.127 165.113 304.004 164.991C304.249 165.236 304.494 165.419 304.678 165.664C309.392 171.174 304.984 179.071 297.392 178.642C295.372 178.52 292.433 177.785 289.984 174.724C289.678 174.357 288.821 173.01 288.576 171.48C288.515 170.99 288.515 170.5 288.576 169.949C287.597 173.377 283.985 176.071 279.332 175.581C276.822 175.275 270.577 173.133 271.067 166.46Z" fill="white"/>
<path d="M290.229 161.196C295.494 161.441 298.494 156.054 295.188 152.381C292.005 148.891 285.086 149.809 284.168 155.013C283.862 159.114 287.535 161.073 290.229 161.196Z" fill="#FFD700"/>
<path d="M203.417 96.3056C203.417 93.4284 202.07 91.1633 200.049 89.6941C200.968 90.0614 202.008 90.3063 203.049 90.4287C206.723 90.7348 212.783 88.8983 213.457 82.8378C213.396 77.5119 209.049 75.3081 207.212 74.6347C204.763 73.7164 202.559 73.9001 200.845 74.3898C202.988 73.1655 204.641 71.1453 204.947 68.2681C204.947 59.2691 193.744 56.7592 188.417 61.0444C187.499 61.779 186.274 63.0646 185.724 65.0235C184.989 58.106 175.561 54.1881 169.316 58.7794C164.663 62.2688 165.153 68.3905 169.194 71.8187C169.071 71.7575 168.888 71.6962 168.704 71.635C166.928 71.0228 165.888 70.9616 164.663 70.9616C164.541 70.9616 161.296 70.9004 158.48 73.1042C152.113 78.1241 155.296 87.674 163.745 88.7759C165.704 89.0207 167.235 88.7147 167.847 88.531C168.092 88.4698 168.275 88.4086 168.459 88.2861C168.153 88.4698 167.847 88.6534 167.602 88.8983C161.48 93.9181 164.663 103.223 172.928 104.264C175.132 104.509 178.438 104.264 181.622 101.509C181.989 101.203 183.213 99.8562 183.764 98.3258C183.948 97.7748 184.009 97.2851 184.009 96.7341C184.377 100.591 187.805 104.203 192.886 104.57C195.519 104.754 202.621 103.652 203.417 96.3056Z" fill="white"/>
<path d="M183.826 86.9993C178.132 86.2035 175.928 79.8981 180.214 76.5312C184.315 73.3479 191.54 75.7354 191.54 81.4898C191.111 85.9586 186.764 87.4278 183.826 86.9993Z" fill="#FFBCB0"/>
<path d="M203.049 90.4284C195.886 89.8775 190.989 81.858 196.56 76.5321C196.621 76.4709 201.151 72.3693 207.212 74.5731C209.11 75.2465 213.457 77.4504 213.457 82.7763C212.784 88.9592 206.723 90.7345 203.049 90.4284Z" fill="#FFD700"/>
<path d="M163.684 88.7746C155.235 87.6727 152.052 78.1228 158.419 73.103C161.235 70.8992 164.48 70.9604 164.602 70.9604C165.888 71.0216 166.867 71.0216 168.643 71.6338C169.806 72.0623 170.663 72.9806 171.765 73.4703C171.826 73.4703 174.949 75.4905 174.949 80.5103C174.643 83.0202 173.908 85.0404 171.03 87.1218C170.602 87.4279 169.99 87.4891 169.5 87.6727C168.888 87.9176 168.337 88.4073 167.663 88.591C167.174 88.7134 165.704 89.0195 163.684 88.7746Z" fill="#FFD700"/>
<path d="M193.927 75.6131C190.193 75.0621 187.132 72.7971 185.968 69.675C185.54 68.5731 185.54 68.5731 185.724 66.6141C185.785 66.0632 185.54 65.5734 185.724 65.0225C186.275 63.0635 187.499 61.7779 188.417 61.0433C193.744 56.7581 204.947 59.268 204.947 68.267C204.274 73.7153 198.825 76.2865 193.927 75.6131Z" fill="#FFD700"/>
<path d="M172.867 104.323C164.663 103.282 161.419 93.9774 167.541 88.9575C172.928 84.5499 182.356 86.6313 184.071 94.4059C183.765 95.6914 184.132 97.0994 183.642 98.385C183.091 99.9154 181.867 101.262 181.499 101.568C178.377 104.323 175.071 104.568 172.867 104.323Z" fill="#FFD700"/>
<path d="M192.825 104.569C184.805 104.019 181.009 95.4481 186.458 90.2446C191.968 85.0412 203.355 87.9184 203.416 96.3052C202.621 103.651 195.519 104.753 192.825 104.569Z" fill="#FFD700"/>
<path d="M173.908 74.0827C165.949 72.491 163.194 63.3696 169.316 58.7783C175.928 53.8809 186.213 58.6559 185.724 66.4305C185.234 72.1849 179.112 75.0622 173.908 74.0827Z" fill="#FFD700"/>
<path d="M303.514 356.479C303.82 358.132 307.861 359.356 308.902 359.54C312.33 360.152 316.493 359.601 321.146 358.744C323.534 361.621 323.717 364.07 325.187 366.886C328.187 372.334 329.901 370.498 330.023 370.314C331.921 367.743 328.431 360.703 325.615 357.887C328.187 357.397 330.819 356.846 333.513 356.357C334.125 356.234 334.799 356.173 335.472 356.173C335.656 356.357 335.901 356.601 336.084 356.846C341.594 363.703 340.37 367.682 341.9 372.946C344.288 381.088 347.165 379.129 347.349 378.946C350.716 375.946 347.9 365.111 344.839 360.764C344.288 360.03 343.247 358.56 341.717 357.091C356.349 361.438 372.205 380.231 357.328 390.883C353.9 393.332 358.491 395.23 357.267 401.229C356.226 406.31 350.532 408.759 348.757 409.616C339.757 413.901 327.023 412.187 318.208 405.269C309.759 398.719 305.351 387.822 305.473 379.129C305.535 376.068 307.739 366.213 305.718 363.641C303.269 360.519 302.535 358.254 302.29 356.846C302.229 355.744 303.331 355.255 303.514 356.479ZM318.82 363.152C318.697 363.274 318.697 363.397 318.82 364.009C318.942 364.498 319.738 367.559 322.371 368.416C322.799 368.539 323.289 368.722 323.534 368.478C324.024 367.988 323.35 366.213 322.309 364.988C321.146 363.58 319.248 362.723 318.82 363.152Z" fill="#7CA417"/>
<path d="M345.145 413.473C344.839 410.596 346.002 408.208 347.839 406.555C346.92 407.045 345.941 407.351 344.9 407.596C341.288 408.269 335.043 407.045 333.758 401.046C333.268 395.72 337.37 393.087 339.145 392.23C341.472 391.067 343.676 391.006 345.512 391.312C343.247 390.333 341.41 388.435 340.798 385.619C339.88 376.62 350.777 373.008 356.532 376.742C357.512 377.355 358.858 378.518 359.593 380.416C359.654 373.437 368.654 368.539 375.327 372.518C380.347 375.518 380.47 381.701 376.796 385.497C376.919 385.435 377.103 385.313 377.225 385.252C378.939 384.456 379.98 384.333 381.204 384.15C381.327 384.15 384.572 383.721 387.633 385.68C394.489 390.027 392.285 399.883 383.959 401.842C382 402.331 380.47 402.148 379.857 402.025C379.613 402.025 379.429 401.903 379.245 401.842C379.551 402.025 379.857 402.148 380.164 402.393C386.776 406.8 384.51 416.411 376.429 418.248C374.225 418.738 370.919 418.799 367.491 416.35C367.062 416.044 365.777 414.881 365.042 413.412C364.797 412.922 364.675 412.371 364.613 411.82C364.613 415.738 361.613 419.656 356.532 420.513C353.9 421.003 346.675 420.635 345.145 413.473Z" fill="white"/>
<path d="M363.756 402.146C369.389 400.8 370.919 394.249 366.266 391.372C361.858 388.617 354.879 391.678 355.43 397.433C356.41 401.84 360.879 402.881 363.756 402.146Z" fill="#FFD700"/>
<path d="M344.9 407.534C352.002 406.249 356.042 397.801 349.981 393.026C349.92 392.964 344.961 389.291 339.206 392.169C337.431 393.026 333.268 395.658 333.819 400.984C335.043 407.045 341.288 408.208 344.9 407.534Z" fill="#AE9AE3"/>
<path d="M383.959 401.902C392.224 399.943 394.428 390.087 387.633 385.741C384.633 383.843 381.388 384.211 381.204 384.211C379.98 384.394 378.939 384.517 377.225 385.313C376.123 385.863 375.327 386.843 374.286 387.455C374.286 387.455 371.348 389.781 371.776 394.801C372.327 397.311 373.307 399.209 376.368 400.984C376.858 401.29 377.409 401.229 377.96 401.413C378.633 401.596 379.184 402.025 379.858 402.147C380.47 402.147 382 402.331 383.959 401.902Z" fill="#AE9AE3"/>
<path d="M352.491 391.803C356.165 390.884 358.981 388.313 359.838 385.069C360.144 383.967 360.144 383.967 359.777 382.008C359.654 381.457 359.838 380.906 359.654 380.416C358.92 378.518 357.573 377.355 356.593 376.743C350.838 373.009 339.941 376.682 340.859 385.62C341.961 391.007 347.655 392.966 352.491 391.803Z" fill="#AE9AE3"/>
<path d="M376.429 418.308C384.51 416.472 386.776 406.799 380.164 402.453C374.348 398.596 365.103 401.657 364.246 409.554C364.675 410.84 364.491 412.248 365.042 413.472C365.777 414.941 367.062 416.166 367.491 416.41C370.919 418.859 374.225 418.798 376.429 418.308Z" fill="#AE9AE3"/>
<path d="M356.532 420.574C364.491 419.228 367.429 410.29 361.43 405.699C355.43 401.046 344.349 405.086 345.145 413.473C346.675 420.636 353.899 421.003 356.532 420.574Z" fill="#AE9AE3"/>
<path d="M372.327 388.251C380.102 385.863 381.939 376.436 375.327 372.518C368.225 368.294 358.43 374.11 359.716 381.823C360.818 387.578 367.246 389.781 372.327 388.251Z" fill="#AE9AE3"/>
</g>
<defs>
<filter id="filter0_d" x="0.404491" y="0.786377" width="706.271" height="773.48" filterUnits="userSpaceOnUse" color-interpolation-filters="sRGB">
<feFlood flood-opacity="0" result="BackgroundImageFix"/>
<feColorMatrix in="SourceAlpha" type="matrix" values="0 0 0 0 0 0 0 0 0 0 0 0 0 0 0 0 0 0 127 0" result="hardAlpha"/>
<feOffset dy="4"/>
<feGaussianBlur stdDeviation="2"/>
<feComposite in2="hardAlpha" operator="out"/>
<feColorMatrix type="matrix" values="0 0 0 0 0 0 0 0 0 0 0 0 0 0 0 0 0 0 0.25 0"/>
<feBlend mode="normal" in2="BackgroundImageFix" result="effect1_dropShadow"/>
<feBlend mode="normal" in="SourceGraphic" in2="effect1_dropShadow" result="shape"/>
</filter>
</defs>
</svg>
